<svg xmlns="http://www.w3.org/2000/svg" viewBox="0 0 56.44 88.64"><defs><style>.cls-1{fill:#e2ac7a;}.cls-2{fill:#c85658;}.cls-3{fill:#c23230;}.cls-4{fill:#e9c29d;}</style></defs><title>Alergias</title><g id="Layer_2" data-name="Layer 2"><g id="Layer_1-2" data-name="Layer 1"><path class="cls-1" d="M24.86,88.64s.11-15.9-1.45-18.15-5.47-4.23-7.8-7.22S3.78,44,2.3,42.25-1.25,37.49,1,36s7.25,1.76,9.95,6,5.8,5.09,6.87,4.54S20.54,41,19.08,35.67c.2.74-2.21-9.5-3.7-18-1-5.44-1-10,1.6-10.46,4.64-.82,4.73,6.86,6.19,11.91,1.31,4.54,2.82,13.17,4,13.17s.16-8.82,0-17.12C26.93,7.77,26.44.81,30.17.83c4.42,0,4.08,7.16,4.35,14.52.29,7.83.21,15.92,1.46,16.27,1.45.4,2.6-9.75,4-17.81,1.2-6.79,2.39-9.55,4.8-9.17,4.08.63,2.5,5.3,1.78,10.44C45.4,23.53,43,34.17,44.22,34.73s3.05-8,5.29-14.15c1.54-4.25,2.51-7.2,5-6.34,3,1,2,4,.74,8.09C53.57,27.87,52.18,33.2,51.39,37c-.33,1.59-.93,6.29-1.37,9.87-1.33,10.85-4.17,21.7-4.11,26.5a140,140,0,0,0,.81,15.08Z"/><path class="cls-2" d="M27.82,69.05c-.8-.19-1.27-.42-1.3-1a1.52,1.52,0,0,1-.05-.22,1.9,1.9,0,0,1,0-.7,1.84,1.84,0,0,1,.89-1.25l.19-.06a3.51,3.51,0,0,1,1.86.63,1.14,1.14,0,0,1,.1.19A1.9,1.9,0,0,1,28.74,69a2.6,2.6,0,0,1-.78.15A.45.45,0,0,1,27.82,69.05Z"/><path class="cls-3" d="M27.19,67.27a1.13,1.13,0,0,1,.44-.7,2.65,2.65,0,0,1,1.23.39,1.15,1.15,0,0,1,.05.66,1.11,1.11,0,0,1-.53.76l-.21,0,0,0H28l-.12,0-.55-.14,0,0-.14-.3a.78.78,0,0,1,0-.13A1.19,1.19,0,0,1,27.19,67.27Z"/><path class="cls-2" d="M33.08,73.35a1.73,1.73,0,0,1-.15-.27,1.63,1.63,0,0,1-.12-.74,1.73,1.73,0,0,1,0-.25c.19-1,2.2-1.42,2.87-.44a1.32,1.32,0,0,1,.11.21,1.58,1.58,0,0,1,.1.89,1.44,1.44,0,0,1-.08.3c-1.17.84-1.17.84-2,.69C33.75,73.74,33.65,73.72,33.08,73.35Z"/><path class="cls-3" d="M33.81,72.19a1.24,1.24,0,0,1,.87-.19.51.51,0,0,1,.32.16.8.8,0,0,1,.07.36,3.94,3.94,0,0,1-.64.42,3.31,3.31,0,0,1-.42-.06,1.36,1.36,0,0,1-.25-.15.63.63,0,0,1-.06-.32l0-.15Z"/><path class="cls-2" d="M41.44,60.61a2,2,0,0,1,.07-.39,2.2,2.2,0,0,1,.5-.85,2.61,2.61,0,0,1,.25-.22c1-.86,3.42.4,3.27,2a1.59,1.59,0,0,1-.06.3,2.09,2.09,0,0,1-.64,1,1.93,1.93,0,0,1-.33.23c-1.89-.12-1.89-.12-2.61-1C41.8,61.56,41.71,61.46,41.44,60.61Z"/><path class="cls-3" d="M43.15,60a1.63,1.63,0,0,1,1,.53.65.65,0,0,1,.19.43,1,1,0,0,1-.23.43,5.27,5.27,0,0,1-1-.11,4.07,4.07,0,0,1-.37-.42,2.11,2.11,0,0,1-.14-.36.85.85,0,0,1,.21-.37L43,60Z"/><path class="cls-2" d="M27.33,59.33a2,2,0,0,1-.19.39,2.33,2.33,0,0,1-1.1.92c-1.33.62-3.52-1.39-2.92-3a2.61,2.61,0,0,1,.15-.29,2.27,2.27,0,0,1,1.39-1c2,.66,2,.66,2.49,1.77C27.22,58.22,27.28,58.35,27.33,59.33Z"/><path class="cls-3" d="M25.35,59.45a1.78,1.78,0,0,1-.95-.86.71.71,0,0,1-.08-.52,1.13,1.13,0,0,1,.36-.39,5.62,5.62,0,0,1,1,.41,4.53,4.53,0,0,1,.28.55,2.32,2.32,0,0,1,0,.42,1,1,0,0,1-.33.33l-.21.1Z"/><path class="cls-2" d="M38.59,69c0-.08-.05-.15-.08-.23A1.74,1.74,0,0,1,39,67.11L39.2,67c1.72-1.27,2.09-.3,2.61.8,0,.07,0,.15.07.22a1.74,1.74,0,0,1-.34,1.48l-.14.16a2.19,2.19,0,0,1-2.74-.5Z"/><path class="cls-3" d="M39.62,68.16a.6.6,0,0,1,.16-.23,3.38,3.38,0,0,1,.66-.41,6.56,6.56,0,0,1,.31.62.69.69,0,0,1,0,.48.65.65,0,0,1-.09.16c-.25.19-.81,0-1.07-.26A.57.57,0,0,1,39.62,68.16Z"/><path class="cls-2" d="M37.76,76.22l.17-.07a1.33,1.33,0,0,1,1.31.32l.1.12c1.06,1.25.34,1.58-.48,2l-.17.07a1.33,1.33,0,0,1-1.14-.19l-.13-.1a1.68,1.68,0,0,1,.25-2.12Z"/><path class="cls-3" d="M38.46,77a.44.44,0,0,1,.19.11,2.62,2.62,0,0,1,.35.48,4.57,4.57,0,0,1-.45.27.53.53,0,0,1-.37,0L38,77.8c-.16-.18,0-.62.14-.83A.42.42,0,0,1,38.46,77Z"/><path class="cls-2" d="M37.26,64.45l-.3.12A2.27,2.27,0,0,1,34.73,64a1.63,1.63,0,0,1-.18-.2c-1.83-2.13-.6-2.7.79-3.48l.29-.11a2.25,2.25,0,0,1,2,.3l.23.17c1,1.14.33,3-.39,3.64Z"/><path class="cls-3" d="M36.08,63.58a1.19,1.19,0,0,1-.47-.28c-.53-.61-.92-1-.87-1.19s.77-.48,1.13-.67a1.3,1.3,0,0,1,.91-.1,1.2,1.2,0,0,1,.32.15c.4.44,0,1.55-.34,2.08A1.1,1.1,0,0,1,36.08,63.58Z"/><path class="cls-2" d="M33.3,57a1.87,1.87,0,0,1-.09.26A1.92,1.92,0,0,1,31.6,58.4h-.23c-2.37-.07-2-1.17-1.72-2.47a2,2,0,0,1,.09-.25,1.91,1.91,0,0,1,1.3-1l.24,0a2.44,2.44,0,0,1,2,2.32Z"/><path class="cls-3" d="M32.2,56.78a.52.52,0,0,1,0,.1.77.77,0,0,1-.65.45h-.09c-1,0-.82-.48-.7-1a.6.6,0,0,1,0-.1.77.77,0,0,1,.53-.43l.09,0a1,1,0,0,1,.83.94Z"/><path class="cls-2" d="M40.28,41.73c.79-.26,1.3-.31,1.64.17l.16.16a1.9,1.9,0,0,1,.26,2.14,1,1,0,0,1-.13.16,3.53,3.53,0,0,1-1.91.44l-.19-.11a1.88,1.88,0,0,1-.69-.9,1.83,1.83,0,0,1,.1-1.53c0-.06.08-.12.58-.54A.53.53,0,0,1,40.28,41.73Z"/><path class="cls-3" d="M41.75,42.92a1.14,1.14,0,0,1,0,.83,2.66,2.66,0,0,1-1.26.31,1.16,1.16,0,0,1-.39-.53,1.11,1.11,0,0,1,0-.92l.17-.13.06,0,.13-.07.12,0,.54-.17v.06l.28.18.09.09A1.14,1.14,0,0,1,41.75,42.92Z"/><path class="cls-2" d="M32.37,41.35a1.5,1.5,0,0,1,.26.15,1.64,1.64,0,0,1,.49.57,1.55,1.55,0,0,1,.09.23c.37,1-1.12,2.37-2.22,1.88l-.2-.12a1.6,1.6,0,0,1-.55-.71,1.29,1.29,0,0,1-.08-.3c.55-1.33.55-1.33,1.33-1.64C31.59,41.37,31.69,41.34,32.37,41.35Z"/><path class="cls-3" d="M32.36,42.73a1.24,1.24,0,0,1-.64.62.51.51,0,0,1-.36,0,.79.79,0,0,1-.25-.27,3.87,3.87,0,0,1,.33-.69,2.78,2.78,0,0,1,.39-.17h.29a.64.64,0,0,1,.21.24l.06.14Z"/><path class="cls-2" d="M41.74,47a1.37,1.37,0,0,1,.18-.26,1.64,1.64,0,0,1,.63-.46l.25-.08c1-.3,2.38,1.37,1.78,2.47a1.93,1.93,0,0,1-.14.2,1.68,1.68,0,0,1-.78.51,1.49,1.49,0,0,1-.32.07c-1.34-.68-1.34-.68-1.6-1.53C41.7,47.81,41.67,47.7,41.74,47Z"/><path class="cls-3" d="M43.17,47.12a1.3,1.3,0,0,1,.59.72.53.53,0,0,1,0,.38.83.83,0,0,1-.3.24,4.41,4.41,0,0,1-.69-.4,2.93,2.93,0,0,1-.14-.42,1.45,1.45,0,0,1,0-.31.69.69,0,0,1,.27-.2l.16,0Z"/><path class="cls-2" d="M32.79,82.45a.83.83,0,0,1,.1-.14.89.89,0,0,1,.34-.25l.14,0c.55-.16,1.29.74,1,1.34l-.08.11a.92.92,0,0,1-.43.28l-.17,0c-.73-.37-.73-.37-.87-.83C32.76,82.88,32.75,82.83,32.79,82.45Z"/><path class="cls-3" d="M33.56,82.51a.7.7,0,0,1,.32.39.28.28,0,0,1,0,.21.48.48,0,0,1-.16.13,2.61,2.61,0,0,1-.37-.21,2,2,0,0,1-.08-.23.9.9,0,0,1,0-.17.38.38,0,0,1,.14-.11l.09,0Z"/><path class="cls-2" d="M28.15,47.76l.19.16a1.74,1.74,0,0,1,.43,1.7,1.79,1.79,0,0,1-.07.2c-.8,2-1.62,1.36-2.63.69l-.18-.16a1.73,1.73,0,0,1-.49-1.43c0-.07,0-.14,0-.21a2.19,2.19,0,0,1,2.6-1Z"/><path class="cls-3" d="M27.72,49a.57.57,0,0,1,0,.28,3.35,3.35,0,0,1-.34.69,5.92,5.92,0,0,1-.59-.36.7.7,0,0,1-.27-.4.66.66,0,0,1,0-.19c.11-.29.72-.39,1.05-.35A.58.58,0,0,1,27.72,49Z"/><path class="cls-2" d="M32.17,48.35a3.06,3.06,0,0,1,.19-.26,2.27,2.27,0,0,1,2.18-.73l.26.08c2.67.85,1.93,2,1.16,3.38a3,3,0,0,1-.19.25,2.26,2.26,0,0,1-1.82.77l-.28,0c-1.44-.46-1.83-2.34-1.57-3.3Z"/><path class="cls-3" d="M33.64,48.47a1.23,1.23,0,0,1,.55,0c.77.24,1.29.34,1.36.56s-.4.81-.6,1.17a1.3,1.3,0,0,1-.73.56,1.28,1.28,0,0,1-.35,0c-.58-.17-.84-1.31-.8-2A1.1,1.1,0,0,1,33.64,48.47Z"/><path class="cls-2" d="M37.9,54.78a1.79,1.79,0,0,1-.06-.29,2.07,2.07,0,0,1,.85-1.91l.21-.13c2.22-1.27,2.52-.07,3,1.3a2.22,2.22,0,0,1,.05.28,2.05,2.05,0,0,1-.6,1.7,1.79,1.79,0,0,1-.2.17,2.63,2.63,0,0,1-3.18-1Z"/><path class="cls-3" d="M39.06,54.4a1.12,1.12,0,0,1,0-.12.83.83,0,0,1,.35-.78l.08-.05c.9-.52,1,0,1.21.53a.47.47,0,0,1,0,.12.82.82,0,0,1-.24.69l-.08.07a1.07,1.07,0,0,1-1.3-.39Z"/><path class="cls-4" d="M3.67,39.65A5.36,5.36,0,0,0,.75,36.22c-1.69,1.4-.13,4,1.23,5.64H2S4.5,42.31,3.67,39.65Z"/><path class="cls-4" d="M18.32,13.26c1.84-.24,2-2.33,1.49-4.16s-1.33-2.29-2.58-2.18c-1.52.13-1.81,1.58-1.83,2.66S15.63,13.61,18.32,13.26Z"/><path class="cls-4" d="M44.33,10.51c1.82.36,2.62-1.57,2.75-3.46s-.52-2.59-1.74-2.89c-1.48-.36-2.22.91-2.59,1.92S41.66,10,44.33,10.51Z"/><path class="cls-4" d="M53.45,19.55c1.69.48,2.58-1.29,2.84-3.06S56,14,54.86,13.64c-1.37-.45-2.16.7-2.58,1.62S51,18.86,53.45,19.55Z"/><path class="cls-4" d="M30.85,7.08c2-.16,2.32-2.46,1.9-4.51S31.41,0,30,0c-1.69.05-2.09,1.63-2.19,2.82S27.86,7.31,30.85,7.08Z"/></g></g></svg>