<?xml version="1.0" encoding="utf-8"?>
<!-- Generator: Adobe Illustrator 21.0.0, SVG Export Plug-In . SVG Version: 6.00 Build 0)  -->
<svg version="1.1" id="Layer_1" xmlns="http://www.w3.org/2000/svg" xmlns:xlink="http://www.w3.org/1999/xlink" x="0px" y="0px"
	 viewBox="0 0 37.5 41.5" style="enable-background:new 0 0 37.5 41.5;" xml:space="preserve">
<style type="text/css">
	.st0{fill:#E2AC7A;}
	.st1{fill:#E5B689;}
	.st2{fill:#702E1B;}
	.st3{fill:#426E91;}
	.st4{fill:#C85658;}
	.st5{fill:#C23230;}
</style>
<title>Enfermedades</title>
<g id="Layer_2">
	<g id="Layer_1-2">
		<path class="st0" d="M0.4,38.2c0.5-3,0.8-3.8,5.1-4.3c1.6-0.2,5.9-0.6,7.5-1.6s1.4-5.5,1.4-5.5h8.8c0,0-0.3,4.6,1.3,5.5
			s6,1.4,7.6,1.6c4.2,0.5,4.6,1.2,5.1,4.3c0.2,1.1,0.3,2.1,0.4,3.2H0C0.1,40.4,0.2,39.3,0.4,38.2z"/>
		<path class="st1" d="M8.8,15.4H9c-0.1-0.7-0.2-1.3-0.2-2c-0.4-3.3-1.4-12.8,10-12.8s10.4,9.5,10,12.8c-0.1,0.6-0.2,1.3-0.2,2h0.2
			c1.7-1.3,1.9,2.1,1.1,3.2c-0.4,0.6-0.8,1.3-1,2.1c-0.3,0.8-0.7,0.9-1.1,0.8c0,0.5-0.1,0.9-0.1,1.2c-0.2,1.8-4.4,5.3-5.4,6.4
			s-2.4,0.6-2.9,0.6l-0.7,0l-0.7,0c-0.5,0-2,0.4-2.9-0.6s-5.2-4.6-5.3-6.4c0-0.3-0.1-0.7-0.1-1.2c-0.4,0.1-0.8,0-1.1-0.8
			c-0.2-0.7-0.5-1.4-1-2.1C7,17.4,7.1,14.1,8.8,15.4z"/>
		<path class="st2" d="M27.6,19.4c0,0,0.2-4.9-0.3-5.7s-4.5-3.8-4.8-5.5c-0.2-1.1,1.7-6.7,1.7-6.7s5.3,0,5.3,8.4
			c0,1.5-0.9,5.3-0.9,5.3C28.1,16.7,27.8,18.1,27.6,19.4z"/>
		<path class="st2" d="M9.9,19.4c0,0-0.2-4.9,0.3-5.7S22.1,10,22.4,8.3c0.2-1.1,1.7-6.7,1.7-6.7s-0.9-1.2-3.4-1.5
			C15.3-0.6,8.5,1,8.1,10C8,11.5,9,15.4,9,15.4C9.4,16.7,9.7,18.1,9.9,19.4z"/>
		<path class="st3" d="M37.5,41.5c-0.1-1.1-0.2-2.2-0.4-3.3c-0.5-3-0.8-3.8-5.1-4.3c-1.8-0.2-3.6-0.5-5.4-0.8c0,0-4.1,2.4-7.9,2.5
			v5.9H37.5z"/>
		<path class="st3" d="M5.4,34c-4.2,0.5-4.6,1.2-5.1,4.3c-0.2,1.1-0.3,2.1-0.4,3.2h18.8v-5.9c-3.8,0-7.9-2.5-7.9-2.5
			C9,33.5,7.3,33.8,5.4,34z"/>
		<path class="st4" d="M24.5,22.2c0,0.4-0.1,0.6-0.4,0.7L24,23c-0.1,0-0.2,0.1-0.3,0.1c-0.3,0-0.5-0.1-0.7-0.3c0,0,0-0.1,0-0.1
			c0-0.3,0-0.6,0.1-0.9l0.1-0.1c0.2-0.1,0.4-0.2,0.5-0.1c0.3,0,0.5,0.1,0.7,0.3C24.4,21.8,24.4,21.9,24.5,22.2
			C24.5,22.2,24.5,22.2,24.5,22.2z"/>
		<path class="st5" d="M23.7,22.7c-0.1,0-0.3-0.1-0.4-0.1c0-0.2,0-0.4,0.1-0.6c0.1-0.1,0.2-0.1,0.3-0.1c0.2,0,0.3,0.1,0.4,0.2
			c0,0,0,0.1,0,0.1l0,0v0.1v0.1c0,0.1,0,0.2,0,0.3l0,0L24,22.6l-0.1,0C23.9,22.7,23.8,22.7,23.7,22.7z"/>
		<path class="st4" d="M12.7,24.5c-0.3,0-0.4,0-0.5-0.2l0-0.1c0-0.1-0.1-0.1-0.1-0.2c0-0.2,0-0.3,0.1-0.5l0.1,0
			c0.2-0.1,0.4-0.1,0.6,0l0.1,0c0.1,0.1,0.1,0.2,0.1,0.3c0,0.2,0,0.3-0.1,0.5C13,24.4,12.9,24.5,12.7,24.5L12.7,24.5z"/>
		<path class="st5" d="M12.3,24.1c0-0.1,0-0.2,0.1-0.3c0.1,0,0.3,0,0.4,0c0,0.1,0.1,0.1,0.1,0.2c0,0.1,0,0.2-0.1,0.3l-0.1,0l0,0h0
			h-0.1h-0.2l0,0l-0.1-0.1v0C12.4,24.1,12.4,24.1,12.3,24.1z"/>
		<path class="st4" d="M26.7,22.1c0,0,0,0.1,0,0.1c0,0.1-0.1,0.2-0.1,0.3c0,0-0.1,0-0.1,0.1c-0.3,0.3-1-0.1-1-0.6c0,0,0-0.1,0-0.1
			c0-0.1,0.1-0.2,0.2-0.3c0,0,0.1-0.1,0.1-0.1c0.6,0,0.6,0,0.8,0.3C26.6,21.8,26.6,21.8,26.7,22.1z"/>
		<path class="st5" d="M26.2,22.2c-0.1,0-0.2-0.1-0.3-0.1c0,0-0.1-0.1-0.1-0.1c0,0,0-0.1,0.1-0.1c0.1,0,0.2,0,0.3,0
			c0,0,0.1,0.1,0.1,0.1c0,0,0,0.1,0,0.1C26.4,22.1,26.3,22.1,26.2,22.2L26.2,22.2L26.2,22.2z"/>
		<path class="st4" d="M14.1,25.1C14.1,25.1,14.1,25.1,14.1,25.1c-0.1-0.1-0.2-0.2-0.2-0.3c0,0,0-0.1,0-0.1c0-0.3,0.5-0.6,0.8-0.4
			l0.1,0.1c0.1,0.1,0.1,0.2,0.1,0.3c0,0,0,0.1,0,0.1c-0.3,0.4-0.3,0.4-0.5,0.4C14.3,25.2,14.3,25.2,14.1,25.1z"/>
		<path class="st5" d="M14.2,24.7c0.1-0.1,0.1-0.1,0.2-0.1c0,0,0.1,0,0.1,0c0,0,0,0.1,0.1,0.1c0,0.1-0.1,0.1-0.2,0.2h-0.1h-0.1
			C14.2,24.8,14.2,24.8,14.2,24.7L14.2,24.7L14.2,24.7z"/>
		<path class="st4" d="M12.3,22.1c0,0,0,0.1,0,0.1c0,0.1-0.1,0.2-0.2,0.3l-0.1,0.1c-0.4,0.3-1.2-0.1-1.2-0.6c0,0,0-0.1,0-0.1
			c0-0.1,0.1-0.3,0.2-0.4c0,0,0.1-0.1,0.1-0.1c0.7,0,0.7,0,0.9,0.3C12.2,21.7,12.2,21.8,12.3,22.1z"/>
		<path class="st5" d="M11.8,22.3c-0.1,0-0.3-0.1-0.4-0.2c0,0-0.1-0.1-0.1-0.1c0-0.1,0-0.1,0.1-0.2c0.1,0,0.2,0,0.4,0
			c0,0,0.1,0.1,0.1,0.1c0,0,0,0.1,0.1,0.1c0,0,0,0.1-0.1,0.1L11.8,22.3L11.8,22.3z"/>
		<path class="st4" d="M24.5,20.9c0,0-0.1-0.1-0.1-0.1c-0.1-0.1-0.1-0.2-0.2-0.3c0,0,0-0.1,0-0.1c-0.1-0.4,0.7-0.9,1.1-0.6l0.1,0.1
			c0.1,0.1,0.2,0.2,0.2,0.3c0,0,0,0.1,0,0.1c-0.3,0.5-0.3,0.5-0.7,0.6C24.8,21,24.8,21,24.5,20.9z"/>
		<path class="st5" d="M24.8,20.6h-0.1l0,0c0,0-0.1-0.1-0.1-0.1v-0.1c0,0,0-0.1,0.1-0.1c0.1-0.1,0.2-0.2,0.4-0.2c0,0,0.1,0,0.1,0
			c0,0,0.1,0.1,0.1,0.2C25,20.6,25,20.6,24.8,20.6L24.8,20.6z"/>
		<path class="st4" d="M26,24.1L26,24.1c-0.2,0.2-0.4,0.2-0.6,0.1l-0.1,0c-0.6-0.4-0.3-0.6-0.1-0.9l0.1,0c0.1-0.1,0.3-0.1,0.5-0.1
			h0.1C26.1,23.4,26.2,23.8,26,24.1L26,24.1z"/>
		<path class="st5" d="M25.6,23.9C25.6,23.9,25.6,23.9,25.6,23.9c-0.2,0-0.2-0.1-0.3-0.1c0-0.1,0.1-0.1,0.1-0.2c0,0,0.1-0.1,0.1-0.1
			h0.1c0.1,0,0.1,0.2,0,0.4C25.7,23.9,25.7,23.9,25.6,23.9z"/>
		<path class="st4" d="M14.8,23.5L14.8,23.5c-0.1-0.2-0.1-0.5,0-0.6l0-0.1c0.4-0.6,0.6-0.3,0.9,0l0,0.1c0.1,0.2,0.1,0.3,0,0.5l0,0.1
			C15.5,23.7,15.1,23.7,14.8,23.5L14.8,23.5z"/>
		<path class="st5" d="M15,23.1C15,23.1,15,23.1,15,23.1c0.1-0.2,0.1-0.2,0.2-0.3c0.1,0.1,0.1,0.1,0.2,0.2c0,0,0.1,0.1,0.1,0.1
			c0,0,0,0,0,0.1C15.3,23.3,15.1,23.3,15,23.1C15,23.2,15,23.2,15,23.1z"/>
		<path class="st4" d="M14.5,22.8L14.5,22.8c-0.3,0.2-0.6,0.2-0.8,0.1l-0.1,0c-0.8-0.5-0.4-0.8-0.1-1.1l0.1-0.1
			c0.2-0.1,0.4-0.2,0.6-0.1l0.1,0C14.7,21.9,14.7,22.4,14.5,22.8L14.5,22.8z"/>
		<path class="st5" d="M14.1,22.7c-0.1,0-0.1,0-0.2,0c-0.2-0.1-0.4-0.2-0.4-0.3s0.2-0.2,0.3-0.3c0.1-0.1,0.2-0.1,0.3-0.1
			c0,0,0.1,0,0.1,0c0.2,0.1,0.2,0.5,0.1,0.7C14.2,22.6,14.1,22.7,14.1,22.7z"/>
		<path class="st4" d="M24.4,24.2C24.4,24.3,24.4,24.3,24.4,24.2c0,0.2-0.1,0.3-0.3,0.4h0c-0.5,0.1-0.5-0.1-0.5-0.4c0,0,0,0,0-0.1
			c0-0.1,0.1-0.2,0.2-0.3h0C24.1,23.8,24.3,24,24.4,24.2C24.4,24.2,24.4,24.2,24.4,24.2z"/>
		<path class="st5" d="M24.2,24.2C24.2,24.3,24.2,24.3,24.2,24.2c0,0.1-0.1,0.2-0.1,0.2l0,0c-0.3,0.1-0.3-0.1-0.3-0.2c0,0,0,0,0,0
			c0-0.1,0-0.1,0.1-0.2l0,0C24,24,24.1,24.1,24.2,24.2L24.2,24.2z"/>
		<path class="st4" d="M23.3,20.3C23.3,20.3,23.3,20.4,23.3,20.3c0,0.2-0.1,0.3-0.2,0.3h0c-0.4,0.1-0.4-0.1-0.4-0.3c0,0,0,0,0,0
			c0-0.1,0.1-0.2,0.2-0.2h0C23,20,23.2,20.1,23.3,20.3L23.3,20.3z"/>
		<path class="st5" d="M23.1,20.4L23.1,20.4c0,0.1,0,0.1-0.1,0.1l0,0c-0.2,0-0.2,0-0.2-0.1l0,0c0,0,0-0.1,0.1-0.1l0,0
			C23,20.3,23.1,20.3,23.1,20.4C23.1,20.4,23.1,20.4,23.1,20.4z"/>
		<path class="st4" d="M13.5,20.8C13.5,20.8,13.5,20.8,13.5,20.8c0,0.2-0.1,0.4-0.3,0.4h-0.1c-0.5,0.1-0.5-0.1-0.6-0.4
			c0,0,0,0,0-0.1c0-0.1,0.1-0.3,0.2-0.3l0.1,0C13.1,20.3,13.4,20.5,13.5,20.8C13.5,20.7,13.5,20.7,13.5,20.8z"/>
		<path class="st5" d="M13.2,20.8C13.2,20.8,13.2,20.8,13.2,20.8c0,0.1-0.1,0.1-0.1,0.2l0,0c-0.2,0.1-0.2,0-0.2-0.2c0,0,0,0,0,0
			c0-0.1,0-0.1,0.1-0.1l0,0C13.1,20.6,13.2,20.7,13.2,20.8C13.2,20.8,13.2,20.8,13.2,20.8z"/>
	</g>
</g>
</svg>
