<svg xmlns="http://www.w3.org/2000/svg" viewBox="0 0 152.36 173.93"><defs><style>.cls-1{fill:#006189;}.cls-2{fill:#05abc0;}.cls-3{font-size:36px;fill:#afbabb;font-family:BebasNeueBook, Bebas Neue;}</style></defs><title>Asset 6</title><g id="Layer_2" data-name="Layer 2"><g id="Layer_1-2" data-name="Layer 1"><path class="cls-1" d="M55,66.36A5.91,5.91,0,0,1,56.42,65c-2,.11-4.28.24-5.74.34l-1,.07C39.42,66.32,26.87,68,20,69.76c-2.06.53-4,1.1-5.78,1.71C-9.66,79.67-2.57,93,28.76,103.14l.47-3.46c-22.85-8.73-26.77-19.48-7-26.26,1.59-.55,3.34-1.06,5.18-1.54,3.68-.95,11.5-2.28,17.06-3.08l1.33-.2c2.25-.35,6.35-1,7-1.08l2-.86C54.85,66.55,54.89,66.45,55,66.36Z" transform="translate(0 -15.21)"/><path class="cls-1" d="M130.75,71.33l-.9-.4c-.83-.36-2.05-.88-3.05-1.25a32.61,32.61,0,0,1,1.71,3.12,32.63,32.63,0,0,1,3.19,1.78l.75.48c12.28,8.8,16.12,19.92,6.63,27.22a30.4,30.4,0,0,1-3.34,2.23,65,65,0,0,1-6.31,3.2l-.57.25q-1.23.53-2.5,1-1.06.41-2.16.8a83.07,83.07,0,0,1-10.06,2.83q-1.84.4-3.76.73a113,113,0,0,1-24.64,1.39q-2.14-.1-4.34-.28-3.81-.3-7.77-.83l-3.85,1.33-1.1.38c4.51.68,9.07,1.15,13.6,1.42q2.18.13,4.35.2a150.41,150.41,0,0,0,24.65-1.19q1.88-.25,3.71-.55,2.07-.34,4.08-.74,1.39-.28,2.73-.58,2.93-.66,5.67-1.45h0a66.32,66.32,0,0,0,14.8-6,34.28,34.28,0,0,0,3.71-2.48C159,93.89,151.15,80.66,130.75,71.33Z" transform="translate(0 -15.21)"/><path class="cls-1" d="M64.53,111.83s2.82-1.44-.43-3.61c0,0-1.86-1.33-7.11-1.82.39-.52,1.09-1.5,1.78-2.62l1.46.66a1.28,1.28,0,0,0,.25.11l.22,0a1,1,0,0,0,1.18-1,1.21,1.21,0,0,0-.51-1,1.23,1.23,0,0,0-.59-.23h-.1l-.95-.33c.91-1.86,1.42-3.75.36-4.61l-.7-.41s-.87,3.38-7.26,9.21l-1.11,0c-1,0-2,.09-3,.17h-.29l-2.58,0-2.71.06-2.69.08,1.54-1.1,1-.75a.85.85,0,0,0,.12-.35c0-.09,0-.16-.19-.16a2.51,2.51,0,0,0-1,.38l-.57.3-2.06,1.1L36,103.53l-.38-.37-1.9-1.88s-1.68-1.84-.64.6a24.24,24.24,0,0,0,3.18,4.88l-5.38,2.09s-.74.49.5.34l5.61-1a6.77,6.77,0,0,0,.52.53h0l.23.21a10,10,0,0,0,3,1.66,21,21,0,0,0,3,.88,77.53,77.53,0,0,1-16.53,3.13s-3.43.61,3.16,1.25l1,1.47c.43.62,1.81.33,1.69-.38a3.19,3.19,0,0,0-.63-1,38.68,38.68,0,0,0,6.78-.78,22.19,22.19,0,0,0,1.89,1.7,1.25,1.25,0,0,0,.82.19,1.64,1.64,0,0,0,.32-.06c.57-.16,1.05-.6,1.07-1a1.21,1.21,0,0,0-.22-.73,1.41,1.41,0,0,0-.37-.37l-.4-.4c1.71-.42,3.49-.93,5.28-1.53q.87-.29,1.75-.62l1.4.14,1.59.14c1.17.1,2.45.19,3.86.27a26.91,26.91,0,0,0,2.72,0A14.64,14.64,0,0,0,64.53,111.83Z" transform="translate(0 -15.21)"/><path class="cls-2" d="M132.62,47.78,99.85,18.4a13.28,13.28,0,0,0-17.27,0L49.82,47.77C45.06,52,44.69,55.51,49,55.51h7.78V86.59a13.62,13.62,0,0,0,13.58,13.58h7.47v9l6.7,3.81v5.07l3.15,1.57v4.18l-3.16.83v2.72l3.16,1.56v4.19l-3.16.83v12a6,6,0,0,0,1.71,3.89l3.29,3a2.51,2.51,0,0,0,1.6.64,4,4,0,0,1,1.31-.29,2.34,2.34,0,0,0,.5-.34l3.28-3A6.1,6.1,0,0,0,97.93,146V116.81l6.71-3.8V100.16h7.46a13.62,13.62,0,0,0,13.58-13.58V55.51h7.79C137.73,55.51,137.36,52,132.62,47.78ZM70.12,84.12V67.6H86.64V84.12Zm0-23V44.63H86.64V61.15Zm23,23V67.6H109.6V84.12Zm16.53-23H93.08V44.64h16.52Z" transform="translate(0 -15.21)"/><path class="cls-2" d="M67.28,0" transform="translate(0 -15.21)"/><text class="cls-3" transform="translate(26.41 167.48)">HOUSING-UD</text></g></g></svg>