<svg xmlns="http://www.w3.org/2000/svg" viewBox="0 0 54.95 58.46"><defs><style>.cls-1{fill:#d92e4d;}.cls-2{fill:#fff;}.cls-3{fill:#ff3b5e;}.cls-4{fill:#1da7de;}.cls-5{fill:#33c5ff;}.cls-6{fill:#d1e4eb;}.cls-7{fill:#b6ccd4;}</style></defs><title>Asset 1</title><g id="Layer_2" data-name="Layer 2"><g id="Layer_1-2" data-name="Layer 1"><path class="cls-1" d="M37,28.7V49.47a9,9,0,0,0,18,0V28.75A50.83,50.83,0,0,0,37,28.7Z"/><path class="cls-2" d="M46,.84a9,9,0,0,0-9,9V29.54a50.85,50.85,0,0,1,18,.05V9.84A9,9,0,0,0,46,.84Z"/><path class="cls-3" d="M46,0a9,9,0,0,0-9,9V28.7a50.83,50.83,0,0,1,18,.05V9A9,9,0,0,0,46,0Z"/><path class="cls-4" d="M10.27,27.85,20,9.49a9,9,0,1,1,15.9,8.42l-9.7,18.31A50.82,50.82,0,0,1,10.27,27.85Z"/><path class="cls-2" d="M5.18,56.67A9,9,0,0,1,1.44,44.52L10.66,27.1a50.88,50.88,0,0,0,15.92,8.38L17.34,52.94A9,9,0,0,1,5.18,56.67Z"/><path class="cls-5" d="M4.78,57.42A9,9,0,0,1,1,45.26l9.23-17.42a50.82,50.82,0,0,0,15.92,8.38L16.94,53.68A9,9,0,0,1,4.78,57.42Z"/><path class="cls-2" d="M21.79,55.25A15.07,15.07,0,1,1,42.94,52.7,15.09,15.09,0,0,1,21.79,55.25Z"/><path class="cls-6" d="M20.15,34.81A13.91,13.91,0,0,0,22,53.94L39.19,32.09A13.9,13.9,0,0,0,20.15,34.81Z"/><path class="cls-7" d="M40.22,32.9,23.07,54.75A13.91,13.91,0,0,0,40.22,32.9Z"/></g></g></svg>