<svg xmlns="http://www.w3.org/2000/svg" viewBox="0 0 44.57 72.42"><defs><style>.cls-1{fill:#8ad9eb;}.cls-2{fill:#fff;}.cls-3{fill:#3eab5d;}.cls-4{fill:#e61919;}.cls-5{fill:#fab678;}.cls-6{fill:#51c6e0;}</style></defs><title>Medicamentos</title><g id="Layer_2" data-name="Layer 2"><g id="Layer_1-2" data-name="Layer 1"><path class="cls-1" d="M37.72,13.36c-.56-.26-4.39-2.2-4.39-6a1.67,1.67,0,0,0-1.67-1.67H12.92a1.67,1.67,0,0,0-1.67,1.67c0,3.77-3.81,5.7-4.4,6A9.8,9.8,0,0,0,0,22.66V59.11a9.75,9.75,0,0,0,9.74,9.74H34.83a9.75,9.75,0,0,0,9.74-9.74V22.66A9.8,9.8,0,0,0,37.72,13.36Z"/><path class="cls-2" d="M38.15,41c0,.8-1.76,1.45-1.88,2.22s1.35,1.95,1.11,2.69-2.12.83-2.48,1.52.68,2.27.22,2.9-2.27.13-2.83.68,0,2.36-.68,2.83-2.2-.58-2.9-.22-.77,2.23-1.52,2.48S25.29,54.84,24.5,55s-1.42,1.88-2.22,1.88S20.84,55.09,20.07,55s-1.95,1.35-2.69,1.11S16.56,54,15.86,53.6s-2.27.68-2.9.22-.13-2.27-.68-2.83-2.36,0-2.83-.68.58-2.2.22-2.9-2.23-.77-2.48-1.52S8.43,44,8.3,43.2,6.42,41.78,6.42,41s1.76-1.45,1.88-2.22S7,36.82,7.19,36.08s2.12-.83,2.48-1.52-.68-2.27-.22-2.9,2.27-.13,2.83-.68,0-2.36.68-2.83,2.2.58,2.9.22.77-2.23,1.52-2.48,1.9,1.23,2.69,1.11,1.42-1.88,2.22-1.88S23.74,26.88,24.5,27s1.95-1.35,2.69-1.11S28,28,28.71,28.37s2.27-.68,2.9-.22.13,2.27.68,2.83,2.36,0,2.83.68-.58,2.2-.22,2.9,2.23.77,2.48,1.52-1.23,1.9-1.11,2.69S38.15,40.18,38.15,41Z"/><circle class="cls-3" cx="22.29" cy="40.98" r="12.63"/><path class="cls-4" d="M12.59,59.22V67a5.4,5.4,0,0,0,5.4,5.4h.92a5.4,5.4,0,0,0,5.4-5.4V59.21Z"/><path class="cls-5" d="M12.59,59.22l0-7.8A5.4,5.4,0,0,1,18,46h.93a5.4,5.4,0,0,1,5.41,5.39l0,7.82Z"/><path class="cls-4" d="M30.49,72.41h7.8A5.4,5.4,0,0,0,43.7,67v-.93a5.39,5.39,0,0,0-5.4-5.4H30.48Z"/><path class="cls-5" d="M30.49,72.41h-7.8A5.4,5.4,0,0,1,17.28,67v-.93a5.4,5.4,0,0,1,5.39-5.41h7.82Z"/><rect class="cls-3" x="8.96" y="8.13" width="26.64" height="3.81"/><rect class="cls-1" x="5.93" width="32.72" height="9.5" rx="1.71" ry="1.71"/><rect class="cls-6" x="7.64" width="1.33" height="9.5"/><rect class="cls-6" x="10.78" width="1.33" height="9.5"/><rect class="cls-6" x="13.92" width="1.32" height="9.5"/><rect class="cls-6" x="17.05" width="1.32" height="9.5"/><rect class="cls-6" x="20.19" width="1.32" height="9.5"/><rect class="cls-6" x="23.33" width="1.32" height="9.5"/><rect class="cls-6" x="26.47" width="1.32" height="9.5"/><rect class="cls-6" x="29.6" width="1.33" height="9.5"/><rect class="cls-6" x="32.74" width="1.32" height="9.5"/><rect class="cls-6" x="35.88" width="1.32" height="9.5"/></g></g></svg>